<svg width="21" height="24" viewBox="0 0 21 24" fill="none" xmlns="http://www.w3.org/2000/svg">
<path d="M14.8686 0C14.9245 0 14.9803 0 15.0394 0C15.1764 1.69253 14.5303 2.95719 13.7452 3.87301C12.9748 4.78251 11.9199 5.6646 10.2136 5.53076C10.0998 3.86247 10.7469 2.69161 11.531 1.77789C12.2582 0.92636 13.5913 0.168621 14.8686 0Z" fill="white"/>
<path d="M20.0337 17.6166C20.0337 17.6335 20.0337 17.6482 20.0337 17.6641C19.5542 19.1163 18.8702 20.3609 18.0355 21.516C17.2736 22.5646 16.3398 23.9757 14.6726 23.9757C13.232 23.9757 12.275 23.0494 10.7985 23.0241C9.23669 22.9988 8.37778 23.7987 6.94978 24C6.78642 24 6.62307 24 6.46288 24C5.41427 23.8482 4.56801 23.0178 3.95149 22.2695C2.13354 20.0585 0.728724 17.2025 0.467361 13.5476C0.467361 13.1893 0.467361 12.832 0.467361 12.4737C0.578019 9.85797 1.849 7.73124 3.53837 6.70054C4.42995 6.15253 5.65561 5.68566 7.02038 5.89432C7.60529 5.98496 8.20284 6.1852 8.72662 6.38333C9.22299 6.57408 9.84373 6.91237 10.4318 6.89446C10.8302 6.88286 11.2264 6.67525 11.6279 6.52876C12.8041 6.10405 13.957 5.61715 15.4767 5.84585C17.3031 6.12196 18.5994 6.93345 19.4003 8.18546C17.8553 9.16873 16.6339 10.6505 16.8425 13.1808C17.028 15.4794 18.3643 16.8241 20.0337 17.6166Z" fill="white"/>
</svg>
