<svg width="24" height="25" viewBox="0 0 24 25" fill="none" xmlns="http://www.w3.org/2000/svg">
<path d="M7 9L9.94202 10.7394C11.6572 11.7535 12.3428 11.7535 14.058 10.7394L17 9" stroke="#8B8B8B" stroke-width="1.5" stroke-linecap="round" stroke-linejoin="round"/>
<path d="M2.01576 13.9756C2.08114 17.0411 2.11382 18.5739 3.24495 19.7093C4.37608 20.8448 5.95033 20.8843 9.09883 20.9634C11.0393 21.0122 12.9607 21.0122 14.9012 20.9634C18.0497 20.8843 19.6239 20.8448 20.755 19.7093C21.8862 18.5739 21.9189 17.0411 21.9842 13.9756C22.0053 12.9899 22.0053 12.01 21.9842 11.0244C21.9189 7.95886 21.8862 6.42609 20.755 5.29066C19.6239 4.15523 18.0497 4.11568 14.9012 4.03657C12.9607 3.98781 11.0393 3.98781 9.09882 4.03656C5.95033 4.11566 4.37608 4.15521 3.24495 5.29065C2.11382 6.42608 2.08113 7.95885 2.01576 11.0243C1.99474 12.01 1.99474 12.9899 2.01576 13.9756Z" stroke="#8B8B8B" stroke-width="1.5" stroke-linejoin="round"/>
</svg>
