<svg width="25" height="24" viewBox="0 0 25 24" fill="none" xmlns="http://www.w3.org/2000/svg">
<g clip-path="url(#clip0_643_205)">
<path d="M6.06891 14.5034L5.2335 17.6221L2.18011 17.6867C1.26759 15.9942 0.75 14.0577 0.75 11.9999C0.75 10.01 1.23394 8.1335 2.09175 6.4812H2.09241L4.81078 6.97958L6.00159 9.68164C5.75236 10.4082 5.61652 11.1882 5.61652 11.9999C5.61661 12.8808 5.77617 13.7247 6.06891 14.5034Z" fill="#FBBB00"/>
<path d="M24.5403 9.7583C24.6781 10.4842 24.75 11.2339 24.75 12.0001C24.75 12.8592 24.6597 13.6972 24.4876 14.5056C23.9034 17.2563 22.377 19.6583 20.2626 21.3581L20.2619 21.3574L16.838 21.1827L16.3534 18.1576C17.7564 17.3348 18.8529 16.0471 19.4305 14.5056H13.0138V9.7583H19.5241H24.5403Z" fill="#518EF8"/>
<path d="M20.2619 21.3575L20.2625 21.3581C18.2061 23.0111 15.5937 24.0001 12.75 24.0001C8.18011 24.0001 4.20694 21.4458 2.18011 17.6869L6.06891 14.5037C7.0823 17.2083 9.69132 19.1336 12.75 19.1336C14.0647 19.1336 15.2964 18.7781 16.3533 18.1577L20.2619 21.3575Z" fill="#28B446"/>
<path d="M20.4096 2.76262L16.5221 5.94525C15.4283 5.26153 14.1353 4.86656 12.75 4.86656C9.62208 4.86656 6.96427 6.88017 6.00164 9.68175L2.09241 6.48131H2.09175C4.08891 2.63077 8.11219 0 12.75 0C15.6616 0 18.3313 1.03716 20.4096 2.76262Z" fill="#F14336"/>
</g>
<defs>
<clipPath id="clip0_643_205">
<rect width="24" height="24" fill="white" transform="translate(0.75)"/>
</clipPath>
</defs>
</svg>
