<svg width="20" height="20" viewBox="0 0 20 20" fill="none" xmlns="http://www.w3.org/2000/svg">
<path d="M3.80083 12.8659C2.5 11.6667 1.66667 10.0001 1.66667 10.0001C2.91667 7.50008 6.09233 4.16675 10 4.16675C10.7565 4.16675 11.4755 4.29571 12.1514 4.51531M5.83333 14.5156C7.02858 15.2807 8.43392 15.8334 10 15.8334C13.9077 15.8334 17.0833 12.5001 18.3333 10.0001C18.3333 10.0001 17.0833 7.50008 14.5833 5.76547" stroke="#8B8B8B" stroke-width="1.5" stroke-linecap="round" stroke-linejoin="round"/>
<path d="M11.7851 8.33325C12.2268 8.77492 12.5 9.38517 12.5 10.0592C12.5 11.4072 11.4073 12.4999 10.0593 12.4999C9.38525 12.4999 8.775 12.2268 8.33333 11.785" stroke="#8B8B8B" stroke-width="1.5" stroke-linecap="round" stroke-linejoin="round"/>
<path d="M17.5 2.5L2.5 17.5" stroke="#8B8B8B" stroke-width="1.5" stroke-linecap="round" stroke-linejoin="round"/>
</svg>
