<svg width="20" height="20" viewBox="0 0 20 20" fill="none" xmlns="http://www.w3.org/2000/svg">
<path fill-rule="evenodd" clip-rule="evenodd" d="M4.60026 5.59423C6.02162 4.48459 7.85787 3.54175 10 3.54175C12.1422 3.54175 13.9783 4.48459 15.3997 5.59423C16.8224 6.70488 17.8739 8.01653 18.4622 8.84133L18.5065 8.90316C18.7175 9.19658 18.9583 9.53158 18.9583 10.0001C18.9583 10.4686 18.7175 10.8036 18.5065 11.097L18.4622 11.1588C17.8739 11.9837 16.8224 13.2952 15.3997 14.4059C13.9783 15.5156 12.1422 16.4584 10 16.4584C7.85787 16.4584 6.02162 15.5156 4.60026 14.4059C3.17761 13.2952 2.12605 11.9837 1.53784 11.1588L1.49349 11.097C1.28253 10.8036 1.04167 10.4686 1.04167 10.0001C1.04167 9.53158 1.28253 9.19658 1.49349 8.90316L1.53784 8.84133C2.12605 8.01653 3.17761 6.70488 4.60026 5.59423ZM7.08333 10.0001C7.08333 11.6109 8.38917 12.9167 10 12.9167C11.6108 12.9167 12.9167 11.6109 12.9167 10.0001C12.9167 8.38925 11.6108 7.08341 10 7.08341C8.38917 7.08341 7.08333 8.38925 7.08333 10.0001Z" fill="#8B8B8B"/>
</svg>
