<svg width="22" height="20" viewBox="0 0 22 20" fill="none" xmlns="http://www.w3.org/2000/svg">
<path d="M11.3748 17.0113V11.8267H13.1774V15.324C13.1774 15.432 13.2304 15.5337 13.2766 15.603L13.2755 15.6037L13.285 15.6131L14.5893 16.9174C14.4686 17.1187 14.4094 17.3568 14.4094 17.612C14.4094 18.3968 15.0553 19.0427 15.8401 19.0427C16.6249 19.0427 17.2708 18.3968 17.2708 17.612C17.2708 16.8272 16.6249 16.1813 15.8401 16.1813C15.5814 16.1813 15.3621 16.2422 15.147 16.3626L13.9488 15.1644V11.8267H15.7734V14.576C15.7734 14.7888 15.9573 14.9727 16.1701 14.9727H17.8135C17.9907 15.5691 18.5321 16.0067 19.1841 16.0067C19.9689 16.0067 20.6148 15.3608 20.6148 14.576C20.6148 13.7898 19.9675 13.1673 19.1841 13.1673C18.5321 13.1673 17.9907 13.6049 17.8135 14.2013H16.5668V11.8267H16.6981C18.9787 11.8267 20.9668 9.83904 20.9668 7.57999C20.9668 5.62965 19.8428 4.09379 18.0126 3.5248C17.8202 2.11112 16.8843 0.964899 15.5336 0.455612C14.1818 -0.0540911 12.6982 0.226196 11.6263 1.14399C10.5813 0.691111 9.30356 0.697986 8.15812 1.18259C7.16961 1.59998 6.41614 2.34265 6.04995 3.2427C5.38851 3.21123 4.73046 3.43756 4.22315 3.90076C3.71768 4.36228 3.42475 4.97544 3.41001 5.63562C2.02103 5.9898 1.03343 7.21465 1.03343 8.70199C1.03343 10.4108 2.47128 11.8487 4.1801 11.8487H5.43343V14.2013H4.18674C4.00951 13.6049 3.46805 13.1673 2.8161 13.1673C2.03128 13.1673 1.38543 13.8132 1.38543 14.598C1.38543 15.3828 2.03128 16.0287 2.8161 16.0287C3.46805 16.0287 4.00951 15.5911 4.18674 14.9947H5.8301C6.04292 14.9947 6.22676 14.8108 6.22676 14.598V11.8267H8.02943V15.1424L6.81065 16.3612C6.60943 16.2405 6.37124 16.1813 6.1161 16.1813C5.33128 16.1813 4.68543 16.8272 4.68543 17.612C4.68543 18.3968 5.33128 19.0427 6.1161 19.0427C6.90092 19.0427 7.54676 18.3968 7.54676 17.612C7.54676 17.3533 7.48592 17.134 7.36548 16.9189L8.67124 15.6131C8.75415 15.5302 8.77876 15.4223 8.77876 15.324V11.8267H10.5814V17.0113C9.985 17.1886 9.54743 17.73 9.54743 18.382C9.54743 19.1668 10.1933 19.8127 10.9781 19.8127C11.7629 19.8127 12.4088 19.1668 12.4088 18.382C12.4088 17.73 11.9712 17.1886 11.3748 17.0113ZM3.88022 6.37016L3.88037 6.37014C4.08864 6.34411 4.25044 6.16081 4.22445 5.94539C4.18243 5.39365 4.37315 4.88608 4.77577 4.50455C5.09376 4.20785 5.51755 4.03866 5.9401 4.03866C6.05113 4.03866 6.15454 4.03887 6.25702 4.05936L6.25699 4.05954L6.26183 4.06014C6.466 4.08566 6.65503 3.98182 6.70861 3.76881C6.92245 2.97842 7.5655 2.2888 8.4743 1.89929C9.4922 1.46618 10.659 1.48946 11.5191 1.94102L11.5191 1.94103L11.5203 1.94162C11.6777 2.02034 11.8628 1.99359 11.9932 1.86313C12.8548 1.00157 14.1033 0.721592 15.2668 1.15244C16.4082 1.58328 17.1826 2.59417 17.2694 3.82048C17.2701 3.90373 17.3047 3.98354 17.3566 4.04518C17.4083 4.10655 17.4808 4.15428 17.5634 4.1691C19.1832 4.624 20.1734 5.91753 20.1734 7.57999C20.1734 9.41291 18.5535 11.0333 16.6981 11.0333H4.1801C2.89652 11.0333 1.82676 9.96278 1.82676 8.70199C1.82676 7.48113 2.66018 6.51999 3.88022 6.37016Z" fill="#707070" stroke="#707070" stroke-width="0.133333"/>
</svg>
