<svg width="23" height="23" viewBox="0 0 23 23" fill="none" xmlns="http://www.w3.org/2000/svg">
<g clip-path="url(#clip0_85_18482)">
<path d="M12.694 14.6274L10.1528 12.1161L10.1828 12.0861C11.9236 10.1451 13.1642 7.91407 13.8946 5.55291H16.8261V3.54695H9.82262V1.54596H7.82163V3.54695H0.818237V5.5379H11.9937C11.3183 7.46883 10.2628 9.29972 8.8221 10.9005C7.89165 9.86502 7.12126 8.73948 6.51098 7.54888H4.51003C5.24037 9.17966 6.24089 10.7204 7.49147 12.1111L2.40399 17.1385L3.8197 18.5543L8.82215 13.5518L11.9337 16.6633L12.694 14.6274Z" fill="white"/>
<path d="M18.327 9.5498H16.326L11.8238 21.5556H13.8248L14.9504 18.5542H19.7027L20.8282 21.5556H22.8292L18.327 9.5498ZM15.7007 16.5532L17.3265 12.2161L18.9523 16.5532H15.7007Z" fill="white"/>
</g>
<defs>
<clipPath id="clip0_85_18482">
<rect width="22.0107" height="22.0107" fill="white" transform="translate(0.818176 0.545471)"/>
</clipPath>
</defs>
</svg>
