<svg width="185" height="211" viewBox="0 0 185 211" fill="none" xmlns="http://www.w3.org/2000/svg">
<path d="M92.3187 211C91.3076 211 90.2965 210.861 89.3203 210.565C62.8226 202.679 39.3583 182.136 23.2505 152.732C7.0904 123.259 -0.911197 87.1355 0.0824653 48.2961C0.169629 44.971 1.82573 41.8722 4.56266 39.9573C6.35823 38.7038 8.46758 38.0423 10.6118 38.0423C11.7275 38.0423 12.8432 38.2164 13.9414 38.5819C16.5563 39.4524 19.8337 40.5317 24.9415 40.5317C30.886 40.5317 38.2426 39.0694 46.802 36.1969C68.2616 28.9722 79.4011 12.7297 83.2014 6.09688C85.0493 2.824 88.5358 0.804565 92.3187 0.804565C96.1016 0.804565 99.5881 2.824 101.453 6.11429C105.254 12.7645 116.393 28.9896 137.853 36.2143C146.395 39.0868 153.751 40.5492 159.713 40.5492C164.839 40.5492 168.099 39.4698 170.713 38.5994C171.794 38.2338 172.927 38.0597 174.043 38.0597C176.187 38.0597 178.297 38.7038 180.092 39.9747C182.829 41.8896 184.485 44.971 184.572 48.3135C185.566 87.1529 177.564 123.276 161.404 152.75C145.297 182.153 121.832 202.679 95.3346 210.582C94.3409 210.861 93.3298 211 92.3187 211Z" fill="url(#paint0_linear_172_22155)"/>
<path d="M174.043 48.5746C167.663 50.6985 157.395 53.9018 134.488 46.1722C107.921 37.224 95.317 16.5596 92.3185 11.3195C89.3201 16.577 76.7163 37.224 50.1489 46.1722C27.2424 53.8844 16.9745 50.6811 10.5942 48.5746C8.64173 124.826 43.6465 186.018 92.3185 200.502C140.991 186.001 175.995 124.826 174.043 48.5746Z" fill="#7F3EF7"/>
<path d="M92.7892 202.052C92.4754 202.139 92.1617 202.139 91.8479 202.052C67.599 194.827 46.0174 175.799 31.0427 148.467C15.6497 120.369 8.01416 85.8123 8.95553 48.5224C8.99039 47.4256 10.0712 46.6596 11.1172 47.0078C17.0269 48.975 26.9112 52.2653 49.6259 44.6054C73.9794 36.4058 86.6006 18.0045 90.8891 10.4839C91.5166 9.38713 93.103 9.38713 93.7306 10.4839C98.019 18.0045 110.658 36.4058 134.994 44.6054C157.708 52.2653 167.593 48.9576 173.502 47.0078C174.548 46.6596 175.629 47.4256 175.664 48.5224C176.623 85.7949 168.987 120.369 153.577 148.467C138.62 175.816 117.038 194.844 92.7892 202.052ZM12.1806 50.7856C11.5879 86.648 19.0839 119.847 33.9017 146.9C48.3534 173.292 69.0808 191.693 92.3011 198.779C115.521 191.711 136.249 173.292 150.701 146.9C165.518 119.847 173.014 86.648 172.422 50.7856C164.525 53.1358 154.013 54.4763 133.93 47.7216C110.832 39.9224 97.8447 23.3317 92.3185 14.5054C86.7924 23.3491 73.805 39.9398 50.6719 47.7216C30.6069 54.4937 20.0776 53.1532 12.1806 50.7856Z" fill="#8B4DFF"/>
<path d="M92.3203 82.777C91.9383 82.777 84.6665 82.8428 80.0822 88.7233C79.5553 89.3942 79.6738 90.3677 80.3457 90.8808C81.0175 91.407 81.9923 91.2886 82.5061 90.6176C84.021 88.6706 86.1156 87.2762 88.724 86.4868C90.7263 85.8817 92.294 85.8685 92.3071 85.8685H92.3203C92.3862 85.8685 98.4328 85.908 102.108 90.644C102.635 91.3149 103.597 91.4333 104.269 90.9202C104.664 90.6176 104.861 90.1572 104.861 89.6968C104.861 89.3679 104.756 89.039 104.532 88.7496C99.9741 82.8559 92.7023 82.777 92.3203 82.777Z" fill="white"/>
<path d="M108.8 80.738C103.913 76.6072 98.222 74.4234 92.3203 74.4102C86.4186 74.4102 80.7277 76.5809 75.8403 80.6985C73.9565 82.2904 72.2704 84.0927 70.8476 86.066C70.347 86.7632 70.5051 87.7236 71.2033 88.2235C71.9015 88.7234 72.8632 88.5655 73.3637 87.8683C74.6416 86.0923 76.1433 84.4742 77.8427 83.0534C86.6557 75.6337 98.0244 75.6468 106.811 83.0797C108.497 84.5136 109.999 86.1318 111.277 87.9077C111.777 88.605 112.739 88.7628 113.437 88.2629C113.859 87.9604 114.083 87.4868 114.083 87.0132C114.083 86.6974 113.991 86.3817 113.793 86.1186C112.357 84.1453 110.684 82.3298 108.8 80.738Z" fill="white"/>
<path d="M69.7806 73.5156C67.1986 75.6994 64.8932 78.1726 62.9436 80.8827C62.443 81.5799 62.6011 82.5403 63.2992 83.0402C63.9974 83.5401 64.9591 83.3822 65.4597 82.685C67.2645 80.1854 69.3985 77.8832 71.7829 75.8704C84.2713 65.346 100.409 65.3592 112.884 75.9099C115.268 77.9358 117.402 80.2249 119.194 82.7376C119.695 83.4348 120.656 83.5927 121.354 83.0928C121.776 82.7902 122 82.3166 122 81.843C122 81.5273 121.908 81.2115 121.71 80.9484C119.761 78.2384 117.468 75.752 114.886 73.5682C108.207 67.9114 100.409 64.9251 92.3466 64.9119C84.2845 64.8988 76.4858 67.8719 69.7806 73.5156Z" fill="white"/>
<path d="M113.319 146.91H70.6632C68.8584 146.91 67.3962 145.45 67.3962 143.647V117.613C67.3962 115.81 68.8584 114.35 70.6632 114.35H113.319C115.123 114.35 116.586 115.81 116.586 117.613V143.647C116.586 145.45 115.123 146.91 113.319 146.91Z" fill="white"/>
<path d="M108.326 116.363H104.4V111.772C104.4 104.944 98.828 99.3791 91.9909 99.3791C85.1539 99.3791 79.5816 104.944 79.5816 111.772V116.363H75.6559V111.772C75.6559 102.773 82.9803 95.4587 91.9909 95.4587C101.002 95.4587 108.326 102.773 108.326 111.772V116.363Z" fill="white"/>
<path d="M77.0786 138.372L72.3494 122.888H75.5637L77.5134 129.926C78.093 131.978 78.6331 133.952 78.8966 135.412H78.9361C79.2391 134.031 79.8187 131.939 80.3852 130.005L82.4534 122.888H85.5096L80.6486 138.372H77.0786Z" fill="url(#paint1_linear_172_22155)"/>
<path d="M87.1563 122.888H92.5574C95.3106 122.888 97.7346 124.388 97.7346 127.519C97.7346 130.742 95.4951 132.399 92.3071 132.399H90.1467V138.372H87.1563V122.888ZM90.1467 129.9H92.1095C93.7035 129.9 94.6915 129.268 94.6915 127.571C94.6915 126.019 93.664 125.387 92.2017 125.387H90.1467V129.9Z" fill="url(#paint2_linear_172_22155)"/>
<path d="M99.9345 138.372V122.888H103.755C108.115 132.32 108.813 133.86 109.037 134.596H109.077C108.932 132.755 108.906 130.229 108.906 127.69V122.888H111.633V138.372H107.97C103.294 127.992 102.767 126.756 102.556 126.177H102.53C102.635 128.137 102.648 130.808 102.648 133.57V138.359H99.9345V138.372Z" fill="url(#paint3_linear_172_22155)"/>
<defs>
<linearGradient id="paint0_linear_172_22155" x1="374.363" y1="730.539" x2="-140.805" y2="750.11" gradientUnits="userSpaceOnUse">
<stop stop-color="#C20EF7"/>
<stop offset="1" stop-color="#0125F3"/>
</linearGradient>
<linearGradient id="paint1_linear_172_22155" x1="68.3239" y1="202.013" x2="35.8614" y2="102.891" gradientUnits="userSpaceOnUse">
<stop stop-color="#0125F3"/>
<stop offset="1" stop-color="#C20EF7"/>
</linearGradient>
<linearGradient id="paint2_linear_172_22155" x1="83.9206" y1="202.013" x2="45.5693" y2="107.885" gradientUnits="userSpaceOnUse">
<stop stop-color="#0125F3"/>
<stop offset="1" stop-color="#C20EF7"/>
</linearGradient>
<linearGradient id="paint3_linear_172_22155" x1="96.3563" y1="202.013" x2="60.752" y2="105.377" gradientUnits="userSpaceOnUse">
<stop stop-color="#0125F3"/>
<stop offset="1" stop-color="#C20EF7"/>
</linearGradient>
</defs>
</svg>
