<svg width="23" height="22" viewBox="0 0 23 22" fill="none" xmlns="http://www.w3.org/2000/svg">
<path d="M3.25044 13.7499C3.25044 13.993 3.34702 14.2262 3.51892 14.3981C3.69083 14.57 3.92399 14.6666 4.16711 14.6666L16.6246 14.6666L14.5163 16.7658C14.3437 16.9384 14.2467 17.1725 14.2467 17.4166C14.2467 17.6607 14.3437 17.8948 14.5163 18.0674C14.6889 18.24 14.923 18.337 15.1671 18.337C15.4112 18.337 15.6453 18.24 15.8179 18.0674L19.4846 14.4008C19.6118 14.2718 19.698 14.1082 19.7322 13.9303C19.7665 13.7525 19.7473 13.5685 19.6771 13.4016C19.6083 13.2342 19.4916 13.0909 19.3415 12.9897C19.1914 12.8886 19.0147 12.8342 18.8338 12.8333L4.16711 12.8333C3.92399 12.8333 3.69083 12.9298 3.51892 13.1017C3.34702 13.2736 3.25044 13.5068 3.25044 13.7499Z" fill="white"/>
<path d="M3.51583 7.59915C3.43087 7.68481 3.36366 7.78639 3.31804 7.89807C3.27242 8.00976 3.2493 8.12935 3.25 8.24999C3.2469 8.37023 3.27201 8.48953 3.32333 8.59832C3.3921 8.76572 3.50888 8.90902 3.65896 9.01016C3.80903 9.1113 3.98569 9.16575 4.16666 9.16665L18.8333 9.16665C19.0764 9.16665 19.3096 9.07008 19.4815 8.89817C19.6534 8.72626 19.75 8.4931 19.75 8.24999C19.75 8.00687 19.6534 7.77372 19.4815 7.60181C19.3096 7.4299 19.0764 7.33332 18.8333 7.33332L6.37583 7.33332L8.48417 5.23415C8.56963 5.14868 8.63743 5.04722 8.68369 4.93555C8.72994 4.82388 8.75375 4.70419 8.75375 4.58332C8.75375 4.46245 8.72994 4.34276 8.68369 4.23109C8.63743 4.11942 8.56963 4.01796 8.48417 3.93249C8.3987 3.84702 8.29723 3.77922 8.18556 3.73297C8.07389 3.68671 7.9542 3.6629 7.83333 3.6629C7.58922 3.6629 7.35511 3.75987 7.1825 3.93249L3.51583 7.59915Z" fill="white"/>
</svg>
