<svg width="22" height="24" viewBox="0 0 22 24" fill="none" xmlns="http://www.w3.org/2000/svg">
<rect x="5" y="4" width="12" height="15" fill="#D2C8FF"/>
<path fill-rule="evenodd" clip-rule="evenodd" d="M11.0013 0.354126C10.6171 0.354126 10.2247 0.472079 9.82566 0.622619C9.42168 0.774979 8.91717 0.998937 8.28804 1.27823C7.36328 1.68873 6.14278 2.15985 4.83364 2.53199C3.87828 2.80355 3.10589 3.0231 2.5208 3.24998C1.93278 3.478 1.39966 3.76084 1.04078 4.23597C0.69319 4.69613 0.559474 5.23372 0.49806 5.81349C0.43878 6.37308 0.438802 7.07523 0.438813 7.92536V11.1153C0.438813 14.4258 1.93323 17.051 3.73939 19.0076C5.53998 20.9581 7.68505 22.2851 9.09885 23.0312L9.1671 23.0672C9.76932 23.3856 10.2615 23.6458 11.0013 23.6458C11.7412 23.6458 12.2334 23.3856 12.8355 23.0672L12.9037 23.0312C14.3176 22.2851 16.4627 20.9581 18.2632 19.0076C20.0694 17.051 21.5638 14.4258 21.5638 11.1153V7.92536C21.5638 7.07523 21.5639 6.37308 21.5045 5.81349C21.4431 5.23372 21.3094 4.69613 20.9619 4.23597C20.603 3.76084 20.0699 3.478 19.4818 3.24998C18.8967 3.02311 18.1244 2.80356 17.169 2.53202C15.8598 2.15988 14.6393 1.68872 13.7146 1.27821C13.0854 0.998926 12.5809 0.774979 12.177 0.622619C11.7779 0.472079 11.3855 0.354126 11.0013 0.354126ZM12.9251 6.10562C12.9251 5.49485 12.565 4.9948 12.061 4.78808C11.5467 4.57708 10.9148 4.6911 10.5071 5.19489L6.17487 10.5473C5.8078 11.0008 5.78193 11.5742 5.9669 12.019C6.15267 12.4659 6.59739 12.8752 7.22401 12.8752H9.07491V16.8102C9.07491 17.421 9.43501 17.9211 9.93898 18.1278C10.4532 18.3388 11.085 18.2247 11.4929 17.721L15.8252 12.3687C16.1922 11.9152 16.2181 11.3417 16.0331 10.8969C15.8473 10.4501 15.4025 10.0407 14.776 10.0407H12.9251V6.10562Z" fill="#552CFF"/>
</svg>
