<svg width="22" height="24" viewBox="0 0 22 24" fill="none" xmlns="http://www.w3.org/2000/svg">
<path d="M6.80641 11.0589L11.1387 5.70658C11.4775 5.28799 12.1126 5.54852 12.1126 6.10613V10.2489C12.1126 10.5829 12.3616 10.8537 12.6689 10.8537H14.7759C15.2547 10.8537 15.5098 11.4673 15.1936 11.858L10.8613 17.2103C10.5225 17.6289 9.8874 17.3683 9.8874 16.8107V12.6681C9.8874 12.334 9.63834 12.0633 9.33111 12.0633H7.22402C6.74535 12.0633 6.49019 11.4495 6.80641 11.0589Z" stroke="#AFAFAF" stroke-width="1.5" stroke-linecap="round" stroke-linejoin="round"/>
<path d="M20.75 11.1155V7.97046C20.75 6.19379 20.75 5.30546 20.3122 4.72587C19.8745 4.1463 18.8846 3.86492 16.9049 3.30217C15.5524 2.91769 14.3601 2.45449 13.4075 2.03162C12.1087 1.45508 11.4593 1.16681 11 1.16681C10.5407 1.16681 9.89132 1.45508 8.59252 2.03162C7.63992 2.45449 6.44766 2.91769 5.09511 3.30217C3.11542 3.86492 2.12557 4.1463 1.68779 4.72587C1.25 5.30546 1.25 6.19379 1.25 7.97046V11.1155C1.25 17.2093 6.73467 20.8656 9.47683 22.3128C10.1345 22.6599 10.4633 22.8335 11 22.8335C11.5367 22.8335 11.8655 22.6599 12.5232 22.3128C15.2653 20.8656 20.75 17.2093 20.75 11.1155Z" stroke="#AFAFAF" stroke-width="1.5" stroke-linecap="round"/>
</svg>
