<svg width="22" height="24" viewBox="0 0 22 24" fill="none" xmlns="http://www.w3.org/2000/svg">
<rect x="7" y="11" width="7" height="7" fill="#D2C8FF"/>
<path fill-rule="evenodd" clip-rule="evenodd" d="M10.9998 0.083313C10.2196 0.083313 9.74073 0.65358 9.42949 1.14485C9.11002 1.64895 8.78043 2.3751 8.38926 3.23693C8.23737 3.57154 8.08998 3.90996 7.94236 4.24892C7.59883 5.03771 7.25403 5.82943 6.84818 6.58292C6.53852 7.15783 5.99157 7.48572 5.3248 7.24907C5.07338 7.15984 4.75699 7.01984 4.27916 6.80748C4.16421 6.75638 4.0442 6.69935 3.92034 6.64048C3.26335 6.32827 2.49817 5.96464 1.80536 6.16286C1.12418 6.35775 0.63938 6.92376 0.480216 7.58574C0.383496 7.98804 0.467823 8.40076 0.566666 8.75597C0.668836 9.12319 0.835116 9.58338 1.03565 10.1384L2.869 15.2123C3.24279 16.2468 3.54452 17.0819 3.8571 17.7301C4.49626 19.0555 5.5041 19.8648 6.98051 20.0435C7.65324 20.125 8.47846 20.125 9.4816 20.125H12.518C13.5211 20.125 14.3464 20.125 15.0191 20.0435C16.4955 19.8648 17.5034 19.0555 18.1425 17.7301C18.4551 17.0819 18.7568 16.2469 19.1306 15.2122L20.964 10.1384C21.1645 9.58345 21.3308 9.12318 21.4329 8.75597C21.5317 8.40076 21.6161 7.98804 21.5194 7.58574C21.3602 6.92376 20.8755 6.35775 20.1943 6.16286C19.5084 5.96662 18.7458 6.32695 18.0953 6.63438C17.9779 6.68986 17.8641 6.74361 17.7551 6.79206C17.6885 6.82165 17.622 6.85156 17.5555 6.88149C17.2654 7.01193 16.9743 7.14279 16.6748 7.24907C16.008 7.48572 15.4611 7.15783 15.1514 6.58292C14.7455 5.82942 14.4008 5.03769 14.0573 4.24889C13.9096 3.90993 13.7622 3.57151 13.6103 3.2369C13.2192 2.37509 12.8896 1.64894 12.5702 1.14485C12.2588 0.65358 11.78 0.083313 10.9998 0.083313ZM10.9989 13.0833C10.1055 13.0833 9.38118 13.8109 9.38118 14.7083C9.38118 15.6057 10.1055 16.3333 10.9989 16.3333H11.0134C11.907 16.3333 12.6312 15.6057 12.6312 14.7083C12.6312 13.8109 11.907 13.0833 11.0134 13.0833H10.9989Z" fill="#552CFF"/>
<path fill-rule="evenodd" clip-rule="evenodd" d="M4.49973 22.8331C4.49973 22.2348 4.98474 21.7498 5.58306 21.7498H16.4164C17.0147 21.7498 17.4998 22.2348 17.4998 22.8331C17.4998 23.4313 17.0147 23.9164 16.4164 23.9164H5.58306C4.98474 23.9164 4.49973 23.4313 4.49973 22.8331Z" fill="#D2C8FF"/>
</svg>
