<svg width="22" height="24" viewBox="0 0 22 24" fill="none" xmlns="http://www.w3.org/2000/svg">
<path d="M1.81137 10.1646C1.39097 9.00109 1.18077 8.41934 1.27041 8.04656C1.36844 7.63881 1.65841 7.32093 2.02905 7.21489C2.36792 7.11794 2.89507 7.35223 3.94937 7.82081C4.8819 8.23528 5.34817 8.44252 5.78626 8.43099C6.26861 8.41829 6.73262 8.22486 7.10173 7.88261C7.43697 7.57175 7.66182 7.07641 8.11154 6.08571L9.10265 3.90237C9.93053 2.07858 10.3445 1.16669 11 1.16669C11.6555 1.16669 12.0695 2.07858 12.8973 3.90237L13.8885 6.08571C14.3382 7.07641 14.5631 7.57175 14.8983 7.88261C15.2674 8.22486 15.7313 8.41829 16.2138 8.43099C16.6519 8.44252 17.1181 8.23528 18.0507 7.82081C19.105 7.35223 19.6321 7.11794 19.971 7.21489C20.3416 7.32093 20.6316 7.63881 20.7296 8.04656C20.8192 8.41934 20.6091 9.00109 20.1886 10.1645L18.3816 15.1657C17.6085 17.3051 17.2221 18.3748 16.4132 18.9791C15.6044 19.5834 14.5592 19.5834 12.4688 19.5834H9.53121C7.4408 19.5834 6.39558 19.5834 5.58674 18.9791C4.77792 18.3748 4.39141 17.3051 3.6184 15.1657L1.81137 10.1646Z" stroke="#AFAFAF" stroke-width="1.5"/>
<path d="M11 14.1667H11.009" stroke="#AFAFAF" stroke-width="1.5" stroke-linecap="round" stroke-linejoin="round"/>
<path d="M5.58334 22.8333H16.4167" stroke="#AFAFAF" stroke-width="1.5" stroke-linecap="round"/>
</svg>
