<svg width="24" height="24" viewBox="0 0 24 24" fill="none" xmlns="http://www.w3.org/2000/svg">
<path d="M9.83332 5.50002C9.83332 3.10679 7.89323 1.16669 5.49999 1.16669C3.10675 1.16669 1.16666 3.10679 1.16666 5.50002C1.16666 7.89326 3.10675 9.83335 5.49999 9.83335C7.89323 9.83335 9.83332 7.89326 9.83332 5.50002Z" stroke="#AFAFAF" stroke-width="1.5"/>
<path d="M9.83332 18.5C9.83332 16.1068 7.89323 14.1667 5.49999 14.1667C3.10675 14.1667 1.16666 16.1068 1.16666 18.5C1.16666 20.8932 3.10675 22.8334 5.49999 22.8334C7.89323 22.8334 9.83332 20.8932 9.83332 18.5Z" stroke="#AFAFAF" stroke-width="1.5"/>
<path d="M22.8333 5.50002C22.8333 3.10679 20.8932 1.16669 18.5 1.16669C16.1068 1.16669 14.1667 3.10679 14.1667 5.50002C14.1667 7.89326 16.1068 9.83335 18.5 9.83335C20.8932 9.83335 22.8333 7.89326 22.8333 5.50002Z" stroke="#AFAFAF" stroke-width="1.5"/>
<path d="M22.8333 18.5C22.8333 16.1068 20.8932 14.1667 18.5 14.1667C16.1068 14.1667 14.1667 16.1068 14.1667 18.5C14.1667 20.8932 16.1068 22.8334 18.5 22.8334C20.8932 22.8334 22.8333 20.8932 22.8333 18.5Z" stroke="#AFAFAF" stroke-width="1.5"/>
</svg>
