<svg width="24" height="24" viewBox="0 0 24 24" fill="none" xmlns="http://www.w3.org/2000/svg">
<path fill-rule="evenodd" clip-rule="evenodd" d="M0.354156 5.50002C0.354156 8.34198 2.65803 10.6459 5.49999 10.6459C8.34195 10.6459 10.6458 8.34198 10.6458 5.50002C10.6458 2.65806 8.34195 0.354187 5.49999 0.354187C2.65803 0.354187 0.354156 2.65806 0.354156 5.50002Z" fill="#552CFF"/>
<path fill-rule="evenodd" clip-rule="evenodd" d="M0.354156 18.5C0.354156 21.342 2.65803 23.6459 5.49999 23.6459C8.34195 23.6459 10.6458 21.342 10.6458 18.5C10.6458 15.658 8.34195 13.3542 5.49999 13.3542C2.65803 13.3542 0.354156 15.658 0.354156 18.5Z" fill="#552CFF"/>
<path fill-rule="evenodd" clip-rule="evenodd" d="M13.3542 5.50002C13.3542 8.34198 15.658 10.6459 18.5 10.6459C21.342 10.6459 23.6458 8.34198 23.6458 5.50002C23.6458 2.65806 21.342 0.354187 18.5 0.354187C15.658 0.354187 13.3542 2.65806 13.3542 5.50002Z" fill="#D2C8FF"/>
<path fill-rule="evenodd" clip-rule="evenodd" d="M13.3542 18.5C13.3542 21.342 15.658 23.6459 18.5 23.6459C21.342 23.6459 23.6458 21.342 23.6458 18.5C23.6458 15.658 21.342 13.3542 18.5 13.3542C15.658 13.3542 13.3542 15.658 13.3542 18.5Z" fill="#552CFF"/>
</svg>
